<?xml version="1.0" encoding="UTF-8" standalone="no"?>
<svg
   width="219.54233mm"
   height="99.999733mm"
   viewBox="0 0 219.54233 99.999733"
   version="1.1"
   id="svg1">
  <defs
     id="defs1" />
  <g
     id="layer1"
     transform="translate(34.395908,-22.753718)">
    <polygon
       class="fil31"
       points="28025.65,110697.71 28125.67,110697.71 28125.67,102797.71 28025.65,102797.71 "
       id="polygon67"
       style="clip-rule:evenodd;fill:#fefefe;fill-rule:nonzero;image-rendering:optimizeQuality;shape-rendering:geometricPrecision;text-rendering:geometricPrecision"
       transform="matrix(0.00999997,0,0,0.00999997,-199.38343,-994.72033)" />
    <path
       class="fil31"
       d="m 99.654573,59.472907 h 6.347477 c -0.0434,-0.823397 -0.1986,-1.534595 -0.46559,-2.133993 -0.2674,-0.599398 -0.6322,-1.097497 -1.0944,-1.495096 -0.4621,-0.396799 -1.0071,-0.692798 -1.6354,-0.887897 -0.62829,-0.195099 -1.31799,-0.292499 -2.06909,-0.292499 -0.4332,0 -0.946098,0.036 -1.538096,0.1083 -0.592298,0.0724 -1.155696,0.216699 -1.689795,0.433298 L 97.14138,53.623525 c 0.375399,-0.202199 0.920798,-0.382799 1.635796,-0.541598 0.714797,-0.1587 1.462294,-0.2384 2.242294,-0.2384 1.083,0 2.06519,0.1481 2.94639,0.444099 0.8805,0.296299 1.6281,0.754998 2.24219,1.375796 0.6135,0.620898 1.0866,1.411896 1.4189,2.372093 0.332,0.960597 0.4981,2.097993 0.4981,3.412089 0,1.242497 -0.1591,2.357993 -0.4766,3.34709 -0.3178,0.989597 -0.7983,1.827395 -1.4404,2.513193 -0.64309,0.686198 -1.44069,1.213196 -2.39389,1.581495 -0.9536,0.368299 -2.06549,0.552499 -3.33659,0.552499 -0.794097,0 -1.451295,-0.0579 -1.971294,-0.1732 -0.519998,-0.1157 -0.960597,-0.231099 -1.321496,-0.346799 l 0.368299,-1.711295 c 0.462099,0.1587 0.960297,0.266999 1.494696,0.324899 0.534098,0.0578 1.011095,0.0864 1.429795,0.0864 1.6609,0 2.98979,-0.440299 3.98639,-1.321496 0.9966,-0.880897 1.51659,-2.231293 1.55999,-4.050888 h -6.369377 z"
       id="path67"
       style="clip-rule:evenodd;fill:#fefefe;fill-rule:nonzero;stroke-width:0.00999997;image-rendering:optimizeQuality;shape-rendering:geometricPrecision;text-rendering:geometricPrecision" />
    <polygon
       class="fil31"
       points="32085.49,104778.38 32310.81,104778.38 31845,105501.96 32360.62,106294.86 32109.34,106294.86 31715,105651.43 31318.55,106294.86 31080.25,106294.86 31593.68,105506.26 31130.1,104778.38 31368.4,104778.38 31719.34,105374.11 "
       id="polygon68"
       style="clip-rule:evenodd;fill:#fefefe;fill-rule:nonzero;image-rendering:optimizeQuality;shape-rendering:geometricPrecision;text-rendering:geometricPrecision"
       transform="matrix(0.00999997,0,0,0.00999997,-199.38343,-994.72033)" />
    <polygon
       class="fil31"
       points="33905.23,106294.86 33710.28,106294.86 33710.28,104960.34 32993.16,104960.34 32993.16,106294.86 32798.21,106294.86 32798.21,104778.38 33905.23,104778.38 "
       id="polygon69"
       style="clip-rule:evenodd;fill:#fefefe;fill-rule:nonzero;image-rendering:optimizeQuality;shape-rendering:geometricPrecision;text-rendering:geometricPrecision"
       transform="matrix(0.00999997,0,0,0.00999997,-199.38343,-994.72033)" />
    <path
       class="fil31"
       d="m 98.702676,85.582329 h 1.873594 c 0.9712,0 1.70889,-0.196499 2.21189,-0.589798 0.5031,-0.392999 0.7546,-0.994497 0.7546,-1.804095 0,-0.832597 -0.2515,-1.434095 -0.7546,-1.804094 -0.503,-0.370099 -1.24069,-0.555299 -2.21189,-0.555299 h -1.873594 z m 0,5.932982 H 97.14128 V 79.372048 h 3.57369 c 0.6939,0 1.3155,0.0723 1.86509,0.216599 0.5489,0.1447 1.0202,0.372899 1.4139,0.685098 0.3927,0.312199 0.6936,0.705898 0.9021,1.179696 0.2081,0.474499 0.3118,1.040997 0.3118,1.699995 0,1.260897 -0.4074,2.223594 -1.2227,2.888592 -0.8152,0.664998 -1.95189,0.997597 -3.40889,0.997597 h -1.873594 z"
       id="path69"
       style="clip-rule:evenodd;fill:#fefefe;fill-rule:nonzero;stroke-width:0.00999997;image-rendering:optimizeQuality;shape-rendering:geometricPrecision;text-rendering:geometricPrecision" />
    <path
       class="fil31"
       d="m 114.15923,90.231515 c 1.1451,0 2.04399,-0.401899 2.69769,-1.205496 0.6533,-0.803998 0.98,-1.997794 0.98,-3.58239 0,-0.832897 -0.0896,-1.549795 -0.2688,-2.151293 -0.1796,-0.601098 -0.4368,-1.098497 -0.7719,-1.491896 -0.3358,-0.392998 -0.7433,-0.682198 -1.22309,-0.867497 -0.4801,-0.184799 -1.0209,-0.277599 -1.622,-0.277599 -0.532,0 -1.0294,0.0984 -1.4919,0.294899 -0.46249,0.197199 -0.86189,0.491799 -1.19699,0.884797 -0.3355,0.393299 -0.6015,0.890798 -0.798,1.492196 -0.1968,0.601198 -0.2949,1.306696 -0.2949,2.116393 0,0.797898 0.0952,1.497896 0.2861,2.098994 0.1908,0.601498 0.4597,1.101397 0.8068,1.500696 0.3468,0.398999 0.7659,0.696698 1.25759,0.893197 0.4915,0.196899 1.0379,0.294999 1.6394,0.294999 z m -0.1559,1.457296 c -0.8446,0 -1.6048,-0.1447 -2.28139,-0.433899 -0.6767,-0.288599 -1.2549,-0.702398 -1.735,-1.239996 -0.4798,-0.537999 -0.8474,-1.194197 -1.10139,-1.969294 -0.2543,-0.774698 -0.3817,-1.642095 -0.3817,-2.601993 0,-0.971597 0.133,-1.841494 0.399,-2.610892 0.26599,-0.769097 0.63889,-1.422395 1.11899,-1.960394 0.4798,-0.537698 1.0552,-0.951097 1.7262,-1.240396 0.67059,-0.288899 1.40509,-0.433599 2.20309,-0.433599 0.902,0 1.69719,0.1535 2.38539,0.459699 0.688,0.306599 1.2662,0.734498 1.7346,1.283796 0.4685,0.549598 0.8241,1.208596 1.06679,1.977594 0.2431,0.769398 0.3645,1.610495 0.3645,2.524192 0,1.029397 -0.1387,1.934195 -0.4163,2.714892 -0.27759,0.780398 -0.65939,1.431296 -1.14509,1.951594 -0.4858,0.520399 -1.064,0.913698 -1.7346,1.179697 -0.67099,0.265599 -1.40509,0.398999 -2.20309,0.398999 z"
       id="path70"
       style="clip-rule:evenodd;fill:#fefefe;fill-rule:nonzero;stroke-width:0.00999997;image-rendering:optimizeQuality;shape-rendering:geometricPrecision;text-rendering:geometricPrecision" />
    <path
       class="fil31"
       d="m 131.85408,91.185612 c -0.3355,0.1623 -0.7285,0.286399 -1.1797,0.373199 -0.4509,0.0865 -0.9426,0.1298 -1.4743,0.1298 -0.94859,0 -1.79559,-0.1418 -2.54169,-0.424699 -0.7458,-0.283599 -1.37899,-0.691098 -1.89939,-1.223096 -0.5207,-0.531999 -0.9197,-1.170797 -1.197,-1.916995 -0.2776,-0.745697 -0.4166,-1.587495 -0.4166,-2.524092 0,-1.029097 0.139,-1.943094 0.4166,-2.741092 0.2773,-0.797997 0.6763,-1.468595 1.197,-2.012194 0.5204,-0.543698 1.14759,-0.954297 1.88209,-1.231896 0.7345,-0.277299 1.5525,-0.416299 2.45459,-0.416299 0.6939,0 1.258,0.0494 1.6916,0.1475 0.4335,0.0984 0.7948,0.205599 1.0841,0.320999 l -0.295,1.370496 c -0.3817,-0.139 -0.769,-0.237 -1.1624,-0.294899 -0.393,-0.0579 -0.7803,-0.0868 -1.162,-0.0868 -1.44609,0 -2.54739,0.404999 -3.30479,1.214296 -0.75779,0.809598 -1.13629,2.000894 -1.13629,3.573589 0,0.751798 0.1069,1.425596 0.321,2.021094 0.2138,0.595799 0.51749,1.098897 0.91049,1.509196 0.3934,0.410999 0.8731,0.723198 1.44,0.936897 0.5666,0.214199 1.2083,0.320699 1.92549,0.320699 0.3817,0 0.7662,-0.0346 1.1536,-0.104 0.3877,-0.0692 0.7317,-0.178899 1.0326,-0.329499 z"
       id="path71"
       style="clip-rule:evenodd;fill:#fefefe;fill-rule:nonzero;stroke-width:0.00999997;image-rendering:optimizeQuality;shape-rendering:geometricPrecision;text-rendering:geometricPrecision" />
    <path
       class="fil31"
       d="m 138.08176,86.848725 h 4.18069 l -2.0295,-5.707583 h -0.0695 z m 4.68378,1.422396 h -5.18688 l -1.1797,3.24419 h -1.57869 l 4.63198,-12.143363 h 1.5614 l 4.54479,12.143363 h -1.6305 z"
       id="path72"
       style="clip-rule:evenodd;fill:#fefefe;fill-rule:nonzero;stroke-width:0.00999997;image-rendering:optimizeQuality;shape-rendering:geometricPrecision;text-rendering:geometricPrecision" />
    <polygon
       class="fil31"
       points="35130.96,108623.89 34974.82,108623.89 34974.82,107555.25 34615.73,107555.25 34615.73,107409.55 35490.05,107409.55 35490.05,107555.25 35130.96,107555.25 "
       id="polygon72"
       style="clip-rule:evenodd;fill:#fefefe;fill-rule:nonzero;image-rendering:optimizeQuality;shape-rendering:geometricPrecision;text-rendering:geometricPrecision"
       transform="matrix(0.00999997,0,0,0.00999997,-199.38343,-994.72033)" />
    <path
       class="fil31"
       d="m 163.77378,90.231515 c 1.1452,0 2.04399,-0.401899 2.69769,-1.205496 0.6534,-0.803998 0.98,-1.997794 0.98,-3.58239 0,-0.832897 -0.0896,-1.549795 -0.2688,-2.151293 -0.1795,-0.601098 -0.4367,-1.098497 -0.7719,-1.491896 -0.3358,-0.392998 -0.7433,-0.682198 -1.22299,-0.867497 -0.4802,-0.184799 -1.021,-0.277599 -1.6221,-0.277599 -0.532,0 -1.0294,0.0984 -1.49189,0.294899 -0.4625,0.197199 -0.8618,0.491799 -1.197,0.884797 -0.3355,0.393299 -0.6015,0.890798 -0.798,1.492196 -0.1968,0.601198 -0.2949,1.306696 -0.2949,2.116393 0,0.797898 0.0953,1.497896 0.2861,2.098994 0.1909,0.601498 0.4597,1.101397 0.8068,1.500696 0.3468,0.398999 0.7659,0.696698 1.2577,0.893197 0.49139,0.196899 1.03779,0.294999 1.63929,0.294999 z m -0.1559,1.457296 c -0.8445,0 -1.60479,-0.1447 -2.28139,-0.433899 -0.6766,-0.288599 -1.2548,-0.702398 -1.735,-1.239996 -0.4797,-0.537999 -0.84729,-1.194197 -1.10129,-1.969294 -0.2544,-0.774698 -0.3817,-1.642095 -0.3817,-2.601993 0,-0.971597 0.133,-1.841494 0.3989,-2.610892 0.266,-0.769097 0.63889,-1.422395 1.11909,-1.960394 0.4797,-0.537698 1.0551,-0.951097 1.7261,-1.240396 0.6706,-0.288899 1.40509,-0.433599 2.20309,-0.433599 0.902,0 1.6972,0.1535 2.38549,0.459699 0.6879,0.306599 1.2661,0.734498 1.7346,1.283796 0.4685,0.549598 0.8241,1.208596 1.0668,1.977594 0.24309,0.769398 0.36439,1.610495 0.36439,2.524192 0,1.029397 -0.1386,1.934195 -0.41629,2.714892 -0.2776,0.780398 -0.6593,1.431296 -1.1451,1.951594 -0.4858,0.520399 -1.064,0.913698 -1.7346,1.179697 -0.67099,0.265599 -1.40509,0.398999 -2.20309,0.398999 z"
       id="path73"
       style="clip-rule:evenodd;fill:#fefefe;fill-rule:nonzero;stroke-width:0.00999997;image-rendering:optimizeQuality;shape-rendering:geometricPrecision;text-rendering:geometricPrecision" />
    <polygon
       class="fil31"
       points="37318.53,107409.55 37509.39,107409.55 37837.26,108453.88 38158.18,107409.55 38349,107409.55 38453.1,108623.89 38296.96,108623.89 38222.39,107674.95 37915.33,108623.89 37752.24,108623.89 37446.94,107678.44 37370.6,108623.89 37214.46,108623.89 "
       id="polygon73"
       style="clip-rule:evenodd;fill:#fefefe;fill-rule:nonzero;image-rendering:optimizeQuality;shape-rendering:geometricPrecision;text-rendering:geometricPrecision"
       transform="matrix(0.00999997,0,0,0.00999997,-199.38343,-994.72033)" />
    <path
       class="fil31"
       d="M 26.106994,72.762368 C 26.098894,78.56625 21.393508,83.262436 15.596325,83.256836 9.7981425,83.251836 5.0984566,78.54445 5.1009565,72.745068 c 0.0063,-5.803183 4.7172859,-10.499669 10.5140685,-10.494669 5.797183,0.006 10.494069,4.713086 10.491969,10.511969 z"
       id="path74"
       style="clip-rule:evenodd;fill:#fefefe;fill-rule:nonzero;stroke-width:0.00999997;image-rendering:optimizeQuality;shape-rendering:geometricPrecision;text-rendering:geometricPrecision" />
    <path
       class="fil31"
       d="m 15.701925,22.753718 c -7.5786775,0 -14.76435596,1.680995 -21.2032366,4.689785 8.5653743,-0.883297 17.4613476,2.805992 24.0300276,9.436072 0.0025,-0.001 0.0043,-0.0021 0.0067,-0.0028 3.28409,3.24339 6.163782,7.449578 8.609874,12.511563 13.934059,2.494492 23.39723,-4.426287 27.126419,-8.521675 4e-4,-0.001 0.0011,-0.0021 0.0022,-0.0031 C 45.088937,29.800796 31.219878,22.753718 15.701925,22.753718 Z"
       id="path75"
       style="clip-rule:evenodd;fill:#fefefe;fill-rule:nonzero;stroke-width:0.00999997;image-rendering:optimizeQuality;shape-rendering:geometricPrecision;text-rendering:geometricPrecision" />
    <path
       class="fil31"
       d="m -14.457985,32.835287 c -6.866479,5.179885 -12.353963,12.084364 -15.815752,20.06874 4.161787,1.024197 16.62185,5.071885 22.3385327,20.479039 1.7190948,-0.559099 5.4257837,-2.715592 7.99747596,-11.040467 C 3.2174622,52.144229 8.962445,42.302059 16.415223,37.944872 8.2008472,29.984496 -4.2695153,26.503006 -14.457985,32.835287 Z"
       id="path76"
       style="clip-rule:evenodd;fill:#fefefe;fill-rule:nonzero;stroke-width:0.00999997;image-rendering:optimizeQuality;shape-rendering:geometricPrecision;text-rendering:geometricPrecision" />
    <path
       class="fil31"
       d="m 59.070595,97.757693 c 3.789488,-6.552481 5.923882,-13.60516 6.53308,-20.676238 -3.516089,7.846776 -11.164366,13.693059 -20.200739,16.057351 0,0.0024 -3e-4,0.0046 -7e-4,0.007 -4.455887,1.217797 -9.544372,1.604096 -15.158755,1.188197 -9.130972,10.799167 -7.858876,22.441137 -6.170481,27.713017 4e-4,10e-4 0.0011,0.002 0.0014,0.004 14.189757,-2.40949 27.237218,-10.87687 34.996195,-24.292927 z"
       id="path77"
       style="clip-rule:evenodd;fill:#fefefe;fill-rule:nonzero;stroke-width:0.00999997;image-rendering:optimizeQuality;shape-rendering:geometricPrecision;text-rendering:geometricPrecision" />
    <path
       class="fil31"
       d="m 65.404876,66.641786 c -1.060097,-8.526275 -4.306287,-16.72305 -9.501672,-23.708029 -2.969291,3.086091 -12.710562,11.834565 -28.934713,9.073373 -0.374699,1.765995 -0.356999,6.048782 5.579183,12.434663 7.269278,7.827076 12.934561,17.715046 12.988161,26.33692 11.012667,-3.12169 20.268039,-12.161963 19.869041,-24.136927 z"
       id="path78"
       style="clip-rule:evenodd;fill:#fefefe;fill-rule:nonzero;stroke-width:0.00999997;image-rendering:optimizeQuality;shape-rendering:geometricPrecision;text-rendering:geometricPrecision" />
    <path
       class="fil31"
       d="m -27.679045,97.750493 c 3.789589,6.552477 8.840573,11.924267 14.669856,15.986447 -5.048885,-6.96347 -6.296281,-16.499046 -3.829389,-25.493419 -0.0017,-0.0014 -0.0039,-0.0028 -0.0056,-0.0042 1.171597,-4.461187 3.38069,-9.053673 6.548581,-13.699759 -4.802686,-13.29406 -15.538054,-18.014846 -20.955337,-19.191042 -0.0014,0 -0.0024,0 -0.0038,-10e-4 -5.004485,13.472559 -4.183288,28.986613 3.575689,42.402673 z"
       id="path79"
       style="clip-rule:evenodd;fill:#fefefe;fill-rule:nonzero;stroke-width:0.00999997;image-rendering:optimizeQuality;shape-rendering:geometricPrecision;text-rendering:geometricPrecision" />
    <path
       class="fil31"
       d="m -3.8534166,118.78493 c 7.9265762,3.34649 16.6602496,4.63829 25.3174236,3.63929 -1.192396,-4.11019 -3.910888,-16.90655 6.596181,-29.552513 -1.344796,-1.206796 -5.068685,-3.33339 -13.57656,-1.393796 -10.4245683,2.370993 -21.8351341,2.325193 -29.341212,-1.939594 -2.798191,11.081763 0.416299,23.604333 11.0041674,29.246613 z"
       id="path80"
       style="clip-rule:evenodd;fill:#fefefe;fill-rule:nonzero;stroke-width:0.00999997;image-rendering:optimizeQuality;shape-rendering:geometricPrecision;text-rendering:geometricPrecision" />
  </g>
</svg>
