<?xml version="1.0" encoding="UTF-8" standalone="no"?>
<svg
   width="219.54233mm"
   height="99.999672mm"
   viewBox="0 0 219.54233 99.999672"
   version="1.1"
   id="svg1"
   xmlns="http://www.w3.org/2000/svg"
   xmlns:svg="http://www.w3.org/2000/svg">
  <defs
     id="defs1" />
  <g
     id="layer1"
     transform="translate(-0.60211764,-1.198281)">
    <polygon
       class="fil8"
       points="28125.67,77395.49 28125.67,69495.49 28025.65,69495.49 28025.65,77395.49 "
       id="polygon176"
       style="clip-rule:evenodd;fill:#434242;fill-rule:nonzero;image-rendering:optimizeQuality;shape-rendering:geometricPrecision;text-rendering:geometricPrecision"
       transform="matrix(0.00999997,0,0,0.00999997,-164.3854,-683.25457)" />
    <path
       class="fil8"
       d="m 134.6526,37.91737 h 6.34748 c -0.0434,-0.823297 -0.1986,-1.534495 -0.46559,-2.133893 -0.2674,-0.599398 -0.6322,-1.097497 -1.0944,-1.495096 -0.4621,-0.396898 -1.0071,-0.692798 -1.6354,-0.887897 -0.62829,-0.195099 -1.31799,-0.292499 -2.06909,-0.292499 -0.4332,0 -0.9461,0.036 -1.5381,0.1083 -0.59229,0.0723 -1.15569,0.216599 -1.68979,0.433198 l -0.3683,-1.581495 c 0.3754,-0.202099 0.9208,-0.382699 1.6358,-0.541498 0.71479,-0.1587 1.46229,-0.2385 2.24229,-0.2385 1.083,0 2.06519,0.1482 2.94639,0.444199 0.8805,0.296299 1.6281,0.754898 2.24219,1.375796 0.6135,0.620898 1.0866,1.411796 1.4189,2.372093 0.332,0.960597 0.4981,2.097993 0.4981,3.41209 0,1.242496 -0.1591,2.357892 -0.4766,3.34709 -0.3178,0.989597 -0.7983,1.827394 -1.4404,2.513192 -0.64309,0.686198 -1.44069,1.213196 -2.39389,1.581495 -0.9536,0.368299 -2.06549,0.552499 -3.33659,0.552499 -0.7941,0 -1.4513,-0.0579 -1.97129,-0.1732 -0.52,-0.1158 -0.9606,-0.231099 -1.3215,-0.346799 l 0.3683,-1.711395 c 0.4621,0.1588 0.9603,0.267099 1.49469,0.324999 0.5341,0.0578 1.0111,0.0864 1.4298,0.0864 1.6609,0 2.98979,-0.440299 3.98639,-1.321496 0.9966,-0.880897 1.51659,-2.231293 1.55999,-4.050988 h -6.36938 z"
       id="path176"
       style="clip-rule:evenodd;fill:#434242;fill-rule:nonzero;stroke-width:0.00999997;image-rendering:optimizeQuality;shape-rendering:geometricPrecision;text-rendering:geometricPrecision" />
    <polygon
       class="fil8"
       points="32310.81,71476.16 31845,72199.74 32360.62,72992.64 32109.34,72992.64 31715,72349.21 31318.55,72992.64 31080.25,72992.64 31593.68,72204.04 31130.1,71476.16 31368.4,71476.16 31719.34,72071.89 32085.49,71476.16 "
       id="polygon177"
       style="clip-rule:evenodd;fill:#434242;fill-rule:nonzero;image-rendering:optimizeQuality;shape-rendering:geometricPrecision;text-rendering:geometricPrecision"
       transform="matrix(0.00999997,0,0,0.00999997,-164.3854,-683.25457)" />
    <polygon
       class="fil8"
       points="33710.28,72992.64 33710.28,71658.12 32993.16,71658.12 32993.16,72992.64 32798.21,72992.64 32798.21,71476.16 33905.23,71476.16 33905.23,72992.64 "
       id="polygon178"
       style="clip-rule:evenodd;fill:#434242;fill-rule:nonzero;image-rendering:optimizeQuality;shape-rendering:geometricPrecision;text-rendering:geometricPrecision"
       transform="matrix(0.00999997,0,0,0.00999997,-164.3854,-683.25457)" />
    <path
       class="fil9"
       d="m 133.70071,64.026892 h 1.87359 c 0.9712,0 1.70889,-0.196499 2.21189,-0.589898 0.5031,-0.392999 0.7546,-0.994397 0.7546,-1.804095 0,-0.832497 -0.2515,-1.433995 -0.7546,-1.804094 -0.503,-0.369999 -1.24069,-0.555199 -2.21189,-0.555199 h -1.87359 z m 0,5.932982 h -1.5614 V 57.816611 h 3.57369 c 0.6939,0 1.3155,0.0723 1.86509,0.216599 0.5489,0.1446 1.0202,0.372899 1.4139,0.685098 0.3927,0.312199 0.6936,0.705898 0.9021,1.179697 0.2081,0.474498 0.3118,1.040996 0.3118,1.699994 0,1.260797 -0.4074,2.223594 -1.2227,2.888592 -0.8152,0.664898 -1.95189,0.997597 -3.40889,0.997597 h -1.87359 z"
       id="path178"
       style="clip-rule:evenodd;fill:#20599d;fill-rule:nonzero;stroke-width:0.00999997;image-rendering:optimizeQuality;shape-rendering:geometricPrecision;text-rendering:geometricPrecision" />
    <path
       class="fil9"
       d="m 149.15726,68.675978 c 1.1451,0 2.04399,-0.401799 2.69769,-1.205396 0.6533,-0.803998 0.98,-1.997794 0.98,-3.582489 0,-0.832898 -0.0896,-1.549696 -0.2688,-2.151194 -0.1796,-0.601098 -0.4368,-1.098597 -0.7719,-1.491896 -0.3358,-0.392998 -0.7433,-0.682297 -1.22309,-0.867497 -0.4801,-0.184799 -1.0209,-0.277599 -1.622,-0.277599 -0.532,0 -1.0294,0.0984 -1.4919,0.294899 -0.46249,0.197199 -0.86189,0.491799 -1.19699,0.884797 -0.3355,0.393299 -0.6015,0.890698 -0.798,1.492196 -0.1968,0.601198 -0.2949,1.306696 -0.2949,2.116294 0,0.797997 0.0952,1.497895 0.2861,2.099093 0.1908,0.601498 0.4597,1.101297 0.8068,1.500696 0.3468,0.398999 0.7659,0.696698 1.25759,0.893197 0.4915,0.196899 1.0379,0.294899 1.6394,0.294899 z m -0.1559,1.457396 c -0.8446,0 -1.6048,-0.1447 -2.28139,-0.433999 -0.6767,-0.288499 -1.2549,-0.702298 -1.735,-1.239996 -0.4798,-0.537999 -0.8474,-1.194097 -1.10139,-1.969194 -0.2543,-0.774698 -0.3817,-1.642195 -0.3817,-2.602092 0,-0.971498 0.133,-1.841495 0.399,-2.610893 0.26599,-0.768997 0.63889,-1.422395 1.11899,-1.960394 0.4798,-0.537598 1.0552,-0.950997 1.7262,-1.240296 0.67059,-0.288899 1.40509,-0.433599 2.20309,-0.433599 0.902,0 1.69719,0.1535 2.38539,0.459699 0.688,0.306499 1.2662,0.734498 1.7346,1.283696 0.4685,0.549698 0.8241,1.208696 1.06679,1.977694 0.2431,0.769398 0.3645,1.610395 0.3645,2.524093 0,1.029396 -0.1387,1.934294 -0.4163,2.714991 -0.27759,0.780398 -0.65939,1.431196 -1.14509,1.951595 -0.4858,0.520298 -1.064,0.913697 -1.7346,1.179696 -0.67099,0.265599 -1.40509,0.398999 -2.20309,0.398999 z"
       id="path179"
       style="clip-rule:evenodd;fill:#20599d;fill-rule:nonzero;stroke-width:0.00999997;image-rendering:optimizeQuality;shape-rendering:geometricPrecision;text-rendering:geometricPrecision" />
    <path
       class="fil9"
       d="m 166.85211,69.630175 c -0.3355,0.1622 -0.7285,0.286399 -1.1797,0.373199 -0.4509,0.0864 -0.9426,0.1298 -1.4743,0.1298 -0.94859,0 -1.79559,-0.1418 -2.54169,-0.424699 -0.7458,-0.283699 -1.37899,-0.691098 -1.89939,-1.223096 -0.5207,-0.531999 -0.9197,-1.170897 -1.197,-1.916994 -0.2776,-0.745798 -0.4166,-1.587496 -0.4166,-2.524093 0,-1.029097 0.139,-1.943094 0.4166,-2.741092 0.2773,-0.797997 0.6763,-1.468595 1.197,-2.012194 0.5204,-0.543698 1.14759,-0.954297 1.88209,-1.231896 0.7345,-0.277299 1.5525,-0.416299 2.45459,-0.416299 0.6939,0 1.258,0.0494 1.6916,0.1474 0.4335,0.0985 0.7948,0.205699 1.0841,0.321099 l -0.295,1.370496 c -0.3817,-0.139 -0.769,-0.2371 -1.1624,-0.294899 -0.393,-0.0579 -0.7803,-0.0868 -1.162,-0.0868 -1.44609,0 -2.54739,0.404999 -3.30479,1.214296 -0.75779,0.809598 -1.13629,2.000894 -1.13629,3.57359 0,0.751797 0.1069,1.425595 0.321,2.021094 0.2138,0.595798 0.51749,1.098896 0.91049,1.509095 0.3934,0.410999 0.8731,0.723198 1.44,0.936997 0.5666,0.2142 1.2083,0.320699 1.92549,0.320699 0.3817,0 0.7662,-0.0346 1.1536,-0.104099 0.3877,-0.0691 0.7317,-0.1788 1.0326,-0.329499 z"
       id="path180"
       style="clip-rule:evenodd;fill:#20599d;fill-rule:nonzero;stroke-width:0.00999997;image-rendering:optimizeQuality;shape-rendering:geometricPrecision;text-rendering:geometricPrecision" />
    <path
       class="fil9"
       d="m 173.07979,65.293288 h 4.18069 l -2.0295,-5.707583 h -0.0695 z m 4.68378,1.422396 h -5.18688 l -1.1797,3.24409 h -1.57869 l 4.63198,-12.143263 h 1.5614 l 4.54479,12.143263 h -1.6305 z"
       id="path181"
       style="clip-rule:evenodd;fill:#20599d;fill-rule:nonzero;stroke-width:0.00999997;image-rendering:optimizeQuality;shape-rendering:geometricPrecision;text-rendering:geometricPrecision" />
    <polygon
       class="fil9"
       points="34974.84,75321.66 34974.84,74253.03 34615.74,74253.03 34615.74,74107.33 35490.07,74107.33 35490.07,74253.03 35130.98,74253.03 35130.98,75321.66 "
       id="polygon181"
       style="clip-rule:evenodd;fill:#20599d;fill-rule:nonzero;image-rendering:optimizeQuality;shape-rendering:geometricPrecision;text-rendering:geometricPrecision"
       transform="matrix(0.00999997,0,0,0.00999997,-164.3854,-683.25457)" />
    <path
       class="fil9"
       d="m 198.77181,68.675978 c 1.1452,0 2.04399,-0.401799 2.69769,-1.205396 0.6534,-0.803998 0.98,-1.997794 0.98,-3.582489 0,-0.832898 -0.0896,-1.549696 -0.2688,-2.151194 -0.1795,-0.601098 -0.4367,-1.098597 -0.7719,-1.491896 -0.3358,-0.392998 -0.7433,-0.682297 -1.22299,-0.867497 -0.4802,-0.184799 -1.021,-0.277599 -1.6221,-0.277599 -0.532,0 -1.0294,0.0984 -1.49189,0.294899 -0.4625,0.197199 -0.8618,0.491799 -1.197,0.884797 -0.3355,0.393299 -0.6015,0.890698 -0.798,1.492196 -0.1968,0.601198 -0.2949,1.306696 -0.2949,2.116294 0,0.797997 0.0953,1.497895 0.2861,2.099093 0.1909,0.601498 0.4597,1.101297 0.8068,1.500696 0.3468,0.398999 0.7659,0.696698 1.2577,0.893197 0.49139,0.196899 1.03779,0.294899 1.63929,0.294899 z m -0.1559,1.457396 c -0.8445,0 -1.60479,-0.1447 -2.28139,-0.433999 -0.6766,-0.288499 -1.2548,-0.702298 -1.735,-1.239996 -0.4797,-0.537999 -0.84729,-1.194097 -1.10129,-1.969194 -0.2544,-0.774698 -0.3817,-1.642195 -0.3817,-2.602092 0,-0.971498 0.133,-1.841495 0.3989,-2.610893 0.266,-0.768997 0.63889,-1.422395 1.11909,-1.960394 0.4797,-0.537598 1.0551,-0.950997 1.7261,-1.240296 0.6706,-0.288899 1.40509,-0.433599 2.20309,-0.433599 0.902,0 1.6972,0.1535 2.38549,0.459699 0.6879,0.306499 1.2661,0.734498 1.7346,1.283696 0.4685,0.549698 0.8241,1.208696 1.0668,1.977694 0.24309,0.769398 0.36439,1.610395 0.36439,2.524093 0,1.029396 -0.1386,1.934294 -0.41629,2.714991 -0.2776,0.780398 -0.6593,1.431196 -1.1451,1.951595 -0.4858,0.520298 -1.064,0.913697 -1.7346,1.179696 -0.67099,0.265599 -1.40509,0.398999 -2.20309,0.398999 z"
       id="path182"
       style="clip-rule:evenodd;fill:#20599d;fill-rule:nonzero;stroke-width:0.00999997;image-rendering:optimizeQuality;shape-rendering:geometricPrecision;text-rendering:geometricPrecision" />
    <polygon
       class="fil9"
       points="37214.46,75321.66 37318.53,74107.33 37509.39,74107.33 37837.26,75151.66 38158.18,74107.33 38349,74107.33 38453.1,75321.66 38296.96,75321.66 38222.39,74372.73 37915.33,75321.66 37752.24,75321.66 37446.94,74376.22 37370.6,75321.66 "
       id="polygon182"
       style="clip-rule:evenodd;fill:#20599d;fill-rule:nonzero;image-rendering:optimizeQuality;shape-rendering:geometricPrecision;text-rendering:geometricPrecision"
       transform="matrix(0.00999997,0,0,0.00999997,-164.3854,-683.25457)" />
    <path
       class="fil9"
       d="m 61.10502,51.206931 c -0.0081,5.803882 -4.713486,10.500068 -10.510669,10.494368 -5.798183,-0.0049 -10.497868,-4.712386 -10.495368,-10.511668 0.0063,-5.803183 4.717285,-10.499669 10.514068,-10.494769 5.797183,0.006 10.494069,4.713086 10.491969,10.512069 z"
       id="path183"
       style="clip-rule:evenodd;fill:#20599d;fill-rule:nonzero;stroke-width:0.00999997;image-rendering:optimizeQuality;shape-rendering:geometricPrecision;text-rendering:geometricPrecision" />
    <path
       class="fil9"
       d="m 50.699951,1.198281 c -7.578678,0 -14.764356,1.6809954 -21.203237,4.6897864 8.565375,-0.883298 17.461348,2.805991 24.030028,9.4360706 0.0025,-10e-4 0.0043,-0.0021 0.0067,-0.0028 3.28409,3.243391 6.163782,7.449578 8.609874,12.511563 13.934059,2.494492 23.39723,-4.426287 27.126419,-8.521675 4e-4,-0.0011 0.0011,-0.0021 0.0022,-0.0032 C 80.086963,8.2453594 66.217904,1.198281 50.699951,1.198281 Z"
       id="path184"
       style="clip-rule:evenodd;fill:#20599d;fill-rule:nonzero;stroke-width:0.00999997;image-rendering:optimizeQuality;shape-rendering:geometricPrecision;text-rendering:geometricPrecision" />
    <path
       class="fil9"
       d="M 20.540041,11.27985 C 13.673562,16.459635 8.1860776,23.364214 4.7242886,31.34859 8.8860756,32.372687 21.346139,36.420475 27.062822,51.827629 28.781916,51.26853 32.488605,49.111937 35.060298,40.787162 38.215488,30.588692 43.960471,20.746622 51.413249,16.389435 43.198873,8.4290594 30.728511,4.9474694 20.540041,11.27985 Z"
       id="path185"
       style="clip-rule:evenodd;fill:#20599d;fill-rule:nonzero;stroke-width:0.00999997;image-rendering:optimizeQuality;shape-rendering:geometricPrecision;text-rendering:geometricPrecision" />
    <path
       class="fil9"
       d="m 94.068616,76.202256 c 3.78949,-6.552481 5.92389,-13.60526 6.533094,-20.676238 -3.516094,7.846776 -11.164375,13.692959 -20.200748,16.057351 0,0.0024 -3e-4,0.0045 -7e-4,0.007 -4.455887,1.217797 -9.544372,1.604096 -15.158755,1.188197 -9.130972,10.799167 -7.858876,22.441128 -6.170481,27.713014 4e-4,0.001 0.0011,0.002 0.0014,0.004 14.189757,-2.409486 27.237218,-10.876865 34.99619,-24.292924 z"
       id="path186"
       style="clip-rule:evenodd;fill:#20599d;fill-rule:nonzero;stroke-width:0.00999997;image-rendering:optimizeQuality;shape-rendering:geometricPrecision;text-rendering:geometricPrecision" />
    <path
       class="fil9"
       d="M 100.40291,45.086249 C 99.342806,36.560075 96.096616,28.363299 90.90123,21.37832 87.931939,24.464411 78.190668,33.212885 61.966517,30.451693 61.591818,32.217688 61.609518,36.500375 67.5457,42.886356 74.814978,50.713432 80.480261,60.601402 80.533861,69.223277 91.546528,66.101586 100.8019,57.061313 100.40291,45.086249 Z"
       id="path187"
       style="clip-rule:evenodd;fill:#20599d;fill-rule:nonzero;stroke-width:0.00999997;image-rendering:optimizeQuality;shape-rendering:geometricPrecision;text-rendering:geometricPrecision" />
    <path
       class="fil9"
       d="M 7.3189806,76.195056 C 11.10857,82.747536 16.159554,88.11932 21.988837,92.181508 16.939952,85.218029 15.692556,75.682457 18.159448,66.688084 c -0.0017,-0.0014 -0.0039,-0.0028 -0.0056,-0.0042 1.171597,-4.461286 3.38069,-9.053673 6.548581,-13.699759 C 19.899743,39.690065 9.1643746,34.969179 3.7470916,33.793083 c -0.0014,-4e-4 -0.0024,-4e-4 -0.0038,-7e-4 -5.0044854,13.472559 -4.18328782,28.986613 3.575689,42.402673 z"
       id="path188"
       style="clip-rule:evenodd;fill:#20599d;fill-rule:nonzero;stroke-width:0.00999997;image-rendering:optimizeQuality;shape-rendering:geometricPrecision;text-rendering:geometricPrecision" />
    <path
       class="fil9"
       d="m 31.144609,97.229494 c 7.926577,3.346386 16.66025,4.638276 25.317424,3.639186 C 55.269637,96.758494 52.551145,83.962232 63.058214,71.31627 61.713418,70.109374 57.989529,67.98288 49.481654,69.922474 39.057086,72.293467 27.64652,72.247567 20.140442,67.98288 17.342251,79.064647 20.556741,91.587209 31.144609,97.229494 Z"
       id="path189"
       style="clip-rule:evenodd;fill:#20599d;fill-rule:nonzero;stroke-width:0.00999997;image-rendering:optimizeQuality;shape-rendering:geometricPrecision;text-rendering:geometricPrecision" />
  </g>
</svg>
